<?xml version="1.0" standalone="no"?><!DOCTYPE svg PUBLIC "-//W3C//DTD SVG 1.1//EN" "http://www.w3.org/Graphics/SVG/1.1/DTD/svg11.dtd"><svg t="1615103289973" class="icon" viewBox="0 0 1024 1024" version="1.1" xmlns="http://www.w3.org/2000/svg" p-id="2215" width="128" height="128" xmlns:xlink="http://www.w3.org/1999/xlink"><defs><style type="text/css"></style></defs><path d="M509.899 513.813m-448.918 0a448.918 448.918 0 1 0 897.836 0 448.918 448.918 0 1 0-897.836 0Z" fill="#C75C5C" p-id="2216"></path><path d="M287.778 485.756h56.115v56.115h-56.115zM287.778 583.957h56.115v56.115h-56.115zM287.778 682.158h56.115v56.115h-56.115zM287.778 387.555h56.115v56.115h-56.115zM287.778 289.354h56.115v56.115h-56.115zM680.581 485.756h56.115v56.115h-56.115zM680.581 583.957h56.115v56.115h-56.115zM680.581 682.158h56.115v56.115h-56.115zM680.581 387.555h56.115v56.115h-56.115zM680.581 289.354h56.115v56.115h-56.115zM400.007 289.354h224.459v196.402H400.007zM400.007 541.871h224.459v196.402H400.007z" fill="#4F5D73" p-id="2217"></path><path d="M736.696 261.297H287.778c-30.992 0-56.115 25.123-56.115 56.115V766.33c0 30.991 25.123 56.115 56.115 56.115h448.918c30.992 0 56.115-25.124 56.115-56.115V317.412c0-30.992-25.123-56.115-56.115-56.115zM343.892 766.33h-56.115v-56.115h56.115v56.115z m0-98.201h-56.115v-56.115h56.115v56.115z m0-98.201h-56.115v-56.115h56.115v56.115z m0-98.201h-56.115v-56.115h56.115v56.115z m0-98.201h-56.115v-56.115h56.115v56.115zM624.466 766.33H400.007V569.928h224.459V766.33z m0-252.517H400.007V317.412h224.459v196.401z m112.23 252.517h-56.115v-56.115h56.115v56.115z m0-98.201h-56.115v-56.115h56.115v56.115z m0-98.201h-56.115v-56.115h56.115v56.115z m0-98.201h-56.115v-56.115h56.115v56.115z m0-98.201h-56.115v-56.115h56.115v56.115z" fill="#231F20" p-id="2218"></path><path d="M736.696 233.239H287.778c-30.992 0-56.115 25.123-56.115 56.115v448.918c0 30.991 25.123 56.115 56.115 56.115h448.918c30.992 0 56.115-25.124 56.115-56.115V289.354c0-30.992-25.123-56.115-56.115-56.115zM343.892 738.273h-56.115v-56.115h56.115v56.115z m0-98.201h-56.115v-56.115h56.115v56.115z m0-98.201h-56.115v-56.115h56.115v56.115z m0-98.201h-56.115v-56.115h56.115v56.115z m0-98.201h-56.115v-56.115h56.115v56.115z m280.574 392.804H400.007V541.871h224.459v196.402z m0-252.517H400.007V289.354h224.459v196.402z m112.23 252.517h-56.115v-56.115h56.115v56.115z m0-98.201h-56.115v-56.115h56.115v56.115z m0-98.201h-56.115v-56.115h56.115v56.115z m0-98.201h-56.115v-56.115h56.115v56.115z m0-98.201h-56.115v-56.115h56.115v56.115z" fill="#E0E0D1" p-id="2219"></path></svg>